<svg xmlns="http://www.w3.org/2000/svg" xmlns:xlink="http://www.w3.org/1999/xlink" width="16px" height="16px" fill="currectColor" class="bi bi-bar-chart-steps" viewBox="0 0 16 16">
<path d="M0.03,8.82c0.04-1.21,0.81-2.29,1.72-3.06c0.01,0.02,0.01,0.04,0.01,0.06c0,0.1,0,0.2,0,0.29c0,0.04-0.01,0.07-0.04,0.1
	c-1.8,2.08-1.38,4.91,1.48,5.63c3.24,0.81,7.13,0.13,10.05-1.43c0.03,0.37,0,0.76,0.01,1.14c0,0.04-0.02,0.06-0.05,0.08
	c-2.05,1.07-4.39,1.51-6.67,1.63c-0.23,0-0.47,0-0.7,0c-2.24-0.09-5.36-0.74-5.76-3.35C0.01,9.39,0.01,9.4,0.03,8.82z M12.23,2.9
	c-0.39-0.07-0.79-0.12-1.19-0.14c-0.01,0-0.03,0-0.02-0.02c-0.45,0-0.91,0-1.36,0C7.98,2.88,6.21,3.26,4.64,4.01
	C4.26,4.19,3.9,4.38,3.54,4.59C3.51,4.61,3.49,4.63,3.49,4.67c0,0.07,0,0.14,0,0.21c0,0.01-0.01,0.03,0.01,0.04
	C5,4.18,6.6,3.67,8.25,3.43c1.9-0.25,4.03-0.29,5.7,0.78c1.82,1.19,1.45,3.63-0.32,4.66c-0.04,0.03-0.06,0.05-0.05,0.1
	c0.01,0.26-0.01,0.53,0.01,0.79c1.22-0.44,2.18-1.6,2.36-2.89C16.29,4.58,14.31,3.24,12.23,2.9z M11.16,8.87
	c-0.05-0.05-0.05-0.05-0.1,0c-0.45,0.46-1.43,0.32-1.43-0.42c0-0.05,0-0.05,0.05-0.05c0.11,0,0.21,0,0.32,0c0.55,0,1.1,0,1.65,0
	c0.06,0,0.07,0,0.07-0.06c0.04-0.7-0.19-1.54-0.92-1.79C9.32,6.14,8.5,7.54,8.91,8.84c0.32,1.15,1.97,1.29,2.71,0.46
	C11.46,9.17,11.31,9.02,11.16,8.87z M9.7,7.85c-0.07,0-0.07,0-0.06-0.07C9.64,7.7,9.66,7.63,9.68,7.57c0.14-0.45,0.86-0.57,1.1-0.15
	c0.07,0.12,0.1,0.25,0.11,0.38c0,0.04,0,0.04-0.05,0.04c-0.2,0-0.39,0-0.59,0C10.07,7.85,9.88,7.85,9.7,7.85z M3.9,9.73
	c0,0.05,0,0.05,0.05,0.05c0.22,0,0.45,0,0.67,0c0.11,0,0.1,0.01,0.1-0.09c0-0.81,0-1.61,0-2.42c0-0.07,0-0.07,0.06-0.07
	c0.2,0,0.41,0,0.61,0c0.16-0.01,0.32,0.07,0.34,0.25c0.02,0.75,0,1.51,0.01,2.26c0,0.07,0,0.07,0.07,0.07c0.23,0,0.46,0,0.69,0
	c0.06,0,0.06,0,0.06-0.06c0-0.75,0-1.49,0-2.24c0.01-0.58-0.43-0.97-1-0.94c-0.53,0-1.05,0-1.58,0c-0.09,0-0.08-0.01-0.08,0.08
	c0,0.51,0,1.02,0,1.53C3.9,8.67,3.9,9.2,3.9,9.73z M7.19,9.05c0.07,0.44,0.46,0.72,0.89,0.72c0.15,0,0.31,0,0.46,0
	c0.06,0,0.06,0,0.06-0.06c0-0.18,0-0.35,0-0.53c0-0.1,0.01-0.09-0.09-0.09C8.32,9.08,8.03,9.13,8,8.87c-0.02-0.53,0-1.07-0.01-1.6
	c0-0.09-0.01-0.08,0.08-0.08c0.17,0,0.33,0,0.5,0c0.03,0,0.05-0.01,0.05-0.04c0-0.19,0-0.39,0-0.58c0-0.03-0.01-0.04-0.04-0.04
	c-0.18,0-0.36,0-0.54,0C8,6.54,7.99,6.52,7.99,6.5c0-0.26,0-0.53,0-0.79c0-0.05,0-0.05-0.05-0.05c-0.24,0-0.48,0-0.72,0
	c-0.05,0-0.05,0-0.05,0.05c0,0.54,0,1.08,0,1.63C7.18,7.9,7.14,8.48,7.19,9.05z M13.01,5.26c0-0.07,0-0.07-0.07-0.07
	c-0.23,0-0.47,0-0.7,0c-0.06,0-0.06,0-0.06,0.06c0,1.2,0,2.4,0,3.6c-0.02,0.47,0.28,0.83,0.75,0.87c0.08,0.01,0.08,0.01,0.08-0.07
	c0-0.73,0-1.46,0-2.19C13.01,6.73,13.01,6,13.01,5.26z M3.17,6.58c0-0.05,0-0.05-0.04-0.05c-0.24,0-0.47,0-0.71,0
	c-0.08,0-0.08-0.01-0.08,0.08C2.35,7.44,2.32,8.27,2.35,9.1C2.39,9.5,2.7,9.75,3.09,9.8c0.08,0.01,0.08,0.01,0.08-0.07
	c0-0.52,0-1.04,0-1.56C3.17,7.64,3.17,7.11,3.17,6.58z M3.12,6.09c0.04,0,0.04,0,0.05-0.05c0-0.23,0-0.46,0-0.68
	c0-0.05,0-0.05-0.04-0.05c-0.25,0-0.49,0-0.74,0c-0.03,0-0.04,0.01-0.04,0.04c0,0.23,0,0.46,0,0.7c0,0.04,0,0.04,0.05,0.04
	c0.12,0,0.24,0,0.36,0C2.87,6.09,3,6.09,3.12,6.09z"/>
</svg>